<svg width="33" height="33" viewBox="0 0 33 33" fill="none" xmlns="http://www.w3.org/2000/svg">
<path d="M13.5 4.75H12C11.5858 4.75 11.25 5.51751 11.25 6.46429V27.0357C11.25 27.9825 11.5858 28.75 12 28.75H13.5C13.9142 28.75 14.25 27.9825 14.25 27.0357V6.46429C14.25 5.51751 13.9142 4.75 13.5 4.75Z" fill="#8B8B8B"/>
<path d="M21.5 4.75H20C19.5858 4.75 19.25 5.51751 19.25 6.46429V27.0357C19.25 27.9825 19.5858 28.75 20 28.75H21.5C21.9142 28.75 22.25 27.9825 22.25 27.0357V6.46429C22.25 5.51751 21.9142 4.75 21.5 4.75Z" fill="#8B8B8B"/>
</svg>
