<svg width="33" height="33" viewBox="0 0 33 33" fill="none" xmlns="http://www.w3.org/2000/svg">
<path d="M16.832 8.99737C16.6293 8.99737 16.4653 9.16137 16.468 9.36404C16.468 9.56671 16.632 9.73071 16.8347 9.73071C17.0373 9.73071 17.2013 9.56671 17.2013 9.36404C17.1987 9.16137 17.036 8.99737 16.832 8.99737" stroke="#A8DB10" stroke-width="1.5" stroke-linecap="round" stroke-linejoin="round"/>
<path d="M10.0653 16.496C10.0653 16.2934 9.90132 16.1294 9.69999 16.132C9.49732 16.132 9.33332 16.296 9.33332 16.4987C9.33332 16.7014 9.49732 16.8654 9.69999 16.8654C9.90265 16.8654 10.0653 16.7 10.0653 16.496" stroke="#A8DB10" stroke-width="1.5" stroke-linecap="round" stroke-linejoin="round"/>
<path d="M22.136 11.1934C21.9933 11.0507 21.7613 11.0507 21.62 11.1947C21.4773 11.3374 21.4773 11.5694 21.62 11.712C21.7627 11.8547 21.9947 11.8547 22.1373 11.712C22.28 11.568 22.28 11.3374 22.136 11.1934" stroke="#A8DB10" stroke-width="1.5" stroke-linecap="round" stroke-linejoin="round"/>
<path d="M12.0467 21.2827C11.904 21.14 11.672 21.14 11.5307 21.284C11.388 21.4267 11.388 21.6587 11.5307 21.8014C11.6733 21.944 11.9053 21.944 12.048 21.8014C12.1907 21.6587 12.1907 21.4267 12.0467 21.2827" stroke="#A8DB10" stroke-width="1.5" stroke-linecap="round" stroke-linejoin="round"/>
<path d="M12.048 11.7107C12.1907 11.568 12.1907 11.336 12.0467 11.1947C11.904 11.052 11.672 11.052 11.5293 11.1947C11.3867 11.3374 11.3867 11.5694 11.5293 11.712C11.672 11.8547 11.904 11.8547 12.048 11.7107" stroke="#A8DB10" stroke-width="1.5" stroke-linecap="round" stroke-linejoin="round"/>
<path fill-rule="evenodd" clip-rule="evenodd" d="M16.8333 28.4974C10.0933 28.4974 4.65067 22.94 4.83867 16.1574C5.012 9.89604 10.232 4.67604 16.4933 4.50271C23.276 4.31471 28.8333 9.75737 28.8333 16.4974V17.8307C28.8333 19.304 27.64 20.4974 26.1667 20.4974H23.416C21.644 20.4974 20.3653 22.1934 20.852 23.896L21.1947 25.0974C21.6827 26.8014 20.4027 28.4974 18.632 28.4974H16.8333Z" stroke="#A8DB10" stroke-width="1.5" stroke-linecap="round" stroke-linejoin="round"/>
</svg>
