<svg width="33" height="33" viewBox="0 0 33 33" fill="none" xmlns="http://www.w3.org/2000/svg">
<path fill-rule="evenodd" clip-rule="evenodd" d="M27.2114 6.22004V6.22004C26.1674 5.17604 24.494 5.12137 23.3834 6.09204L12.6674 15.468C11.506 16.484 11.4474 18.2694 12.538 19.36L14.07 20.892C15.1607 21.9827 16.9474 21.9227 17.962 20.7627L27.338 10.0467C28.31 8.93737 28.254 7.26404 27.2114 6.22004V6.22004Z" stroke="white" stroke-width="1.5" stroke-linecap="round" stroke-linejoin="round"/>
<path d="M14.7433 13.6574L19.7833 18.6974" stroke="white" stroke-width="1.5" stroke-linecap="round" stroke-linejoin="round"/>
<path fill-rule="evenodd" clip-rule="evenodd" d="M5.04868 27.5947H9.98602C13.966 27.5947 15.9594 22.7827 13.1447 19.968V19.968C11.0754 17.8987 7.56068 18.66 6.53402 21.4L4.50468 26.8107C4.36335 27.1907 4.64335 27.5947 5.04868 27.5947Z" stroke="white" stroke-width="1.5" stroke-linecap="round" stroke-linejoin="round"/>
</svg>
