<svg width="32" height="33" viewBox="0 0 32 33" fill="none" xmlns="http://www.w3.org/2000/svg">
<path fill-rule="evenodd" clip-rule="evenodd" d="M26.9613 6.22535V6.22535C25.9173 5.18135 24.244 5.12668 23.1333 6.09735L12.4173 15.4733C11.256 16.4893 11.1973 18.2747 12.288 19.3653L13.82 20.8973C14.9107 21.988 16.6973 21.928 17.712 20.768L27.088 10.052C28.06 8.94268 28.004 7.26935 26.9613 6.22535V6.22535Z" stroke="#A8DB10" stroke-width="1.5" stroke-linecap="round" stroke-linejoin="round"/>
<path d="M14.4933 13.6627L19.5333 18.7027" stroke="#A8DB10" stroke-width="1.5" stroke-linecap="round" stroke-linejoin="round"/>
<path fill-rule="evenodd" clip-rule="evenodd" d="M4.79865 27.6001H9.73599C13.716 27.6001 15.7093 22.7881 12.8947 19.9734V19.9734C10.8253 17.9041 7.31065 18.6654 6.28399 21.4054L4.25465 26.8161C4.11332 27.1961 4.39332 27.6001 4.79865 27.6001Z" stroke="#A8DB10" stroke-width="1.5" stroke-linecap="round" stroke-linejoin="round"/>
</svg>
