<svg width="32" height="33" viewBox="0 0 32 33" fill="none" xmlns="http://www.w3.org/2000/svg">
<path d="M15.9987 8.99737C15.796 8.99737 15.632 9.16137 15.6347 9.36404C15.6347 9.56671 15.7987 9.73071 16.0013 9.73071C16.204 9.73071 16.368 9.56671 16.368 9.36404C16.3653 9.16137 16.2027 8.99737 15.9987 8.99737" stroke="white" stroke-width="1.5" stroke-linecap="round" stroke-linejoin="round"/>
<path d="M9.232 16.496C9.232 16.2934 9.068 16.1294 8.86667 16.132C8.664 16.132 8.5 16.296 8.5 16.4987C8.5 16.7014 8.664 16.8654 8.86667 16.8654C9.06933 16.8654 9.232 16.7 9.232 16.496" stroke="white" stroke-width="1.5" stroke-linecap="round" stroke-linejoin="round"/>
<path d="M21.3027 11.1934C21.16 11.0507 20.928 11.0507 20.7867 11.1947C20.644 11.3374 20.644 11.5694 20.7867 11.712C20.9293 11.8547 21.1613 11.8547 21.304 11.712C21.4467 11.568 21.4467 11.3374 21.3027 11.1934" stroke="white" stroke-width="1.5" stroke-linecap="round" stroke-linejoin="round"/>
<path d="M11.2133 21.2827C11.0707 21.14 10.8387 21.14 10.6973 21.284C10.5547 21.4267 10.5547 21.6587 10.6973 21.8014C10.84 21.944 11.072 21.944 11.2147 21.8014C11.3573 21.6587 11.3573 21.4267 11.2133 21.2827" stroke="white" stroke-width="1.5" stroke-linecap="round" stroke-linejoin="round"/>
<path d="M11.2147 11.7107C11.3573 11.568 11.3573 11.336 11.2133 11.1947C11.0707 11.052 10.8387 11.052 10.696 11.1947C10.5533 11.3374 10.5533 11.5694 10.696 11.712C10.8387 11.8547 11.0707 11.8547 11.2147 11.7107" stroke="white" stroke-width="1.5" stroke-linecap="round" stroke-linejoin="round"/>
<path fill-rule="evenodd" clip-rule="evenodd" d="M16 28.4974C9.26 28.4974 3.81733 22.94 4.00533 16.1574C4.17866 9.89604 9.39866 4.67604 15.66 4.50271C22.4427 4.31471 28 9.75737 28 16.4974V17.8307C28 19.304 26.8067 20.4974 25.3333 20.4974H22.5827C20.8107 20.4974 19.532 22.1934 20.0187 23.896L20.3613 25.0974C20.8493 26.8014 19.5693 28.4974 17.7987 28.4974H16Z" stroke="white" stroke-width="1.5" stroke-linecap="round" stroke-linejoin="round"/>
</svg>
