<svg width="33" height="33" viewBox="0 0 33 33" fill="none" xmlns="http://www.w3.org/2000/svg">
<path d="M25.6113 16.5627V7.22941C25.6113 5.75608 24.418 4.56274 22.9447 4.56274H6.94468C5.47135 4.56274 4.27802 5.75608 4.27802 7.22941V23.2294C4.27802 24.7027 5.47135 25.8961 6.94468 25.8961H16.278" stroke="#A8DB10" stroke-width="1.5" stroke-linecap="round" stroke-linejoin="round"/>
<path fill-rule="evenodd" clip-rule="evenodd" d="M27.786 26.1854L25.9007 28.0707C25.3793 28.592 24.5353 28.592 24.0153 28.0707L13.974 18.0294C13.7233 17.78 13.5833 17.44 13.5833 17.0867V13.868H16.802C17.1553 13.868 17.4953 14.008 17.7447 14.2587L27.786 24.3C28.3073 24.82 28.3073 25.664 27.786 26.1854V26.1854Z" stroke="#A8DB10" stroke-width="1.5" stroke-linecap="round" stroke-linejoin="round"/>
<path d="M25.3967 21.9161L21.6234 25.6761" stroke="#A8DB10" stroke-width="1.5" stroke-linecap="round" stroke-linejoin="round"/>
</svg>
