<svg width="33" height="33" viewBox="0 0 33 33" fill="none" xmlns="http://www.w3.org/2000/svg">
<path d="M25.6113 16.5574V7.22404C25.6113 5.75071 24.418 4.55737 22.9447 4.55737H6.94468C5.47135 4.55737 4.27802 5.75071 4.27802 7.22404V23.224C4.27802 24.6974 5.47135 25.8907 6.94468 25.8907H16.278" stroke="white" stroke-width="1.5" stroke-linecap="round" stroke-linejoin="round"/>
<path fill-rule="evenodd" clip-rule="evenodd" d="M27.786 26.18L25.9007 28.0654C25.3794 28.5867 24.5354 28.5867 24.0154 28.0654L13.974 18.024C13.7234 17.7747 13.5834 17.4347 13.5834 17.0814V13.8627H16.802C17.1554 13.8627 17.4954 14.0027 17.7447 14.2534L27.786 24.2947C28.3074 24.8147 28.3074 25.6587 27.786 26.18V26.18Z" stroke="white" stroke-width="1.5" stroke-linecap="round" stroke-linejoin="round"/>
<path d="M25.3967 21.9107L21.6234 25.6707" stroke="white" stroke-width="1.5" stroke-linecap="round" stroke-linejoin="round"/>
</svg>
